<svg preserveAspectRatio="none" width="100%" height="100%" overflow="visible" style="display: block;" viewBox="0 0 54.02 54" fill="none" xmlns="http://www.w3.org/2000/svg">
<g id="Background">
<rect x="5" y="1" width="44" height="44" rx="8" fill="var(--fill-0, white)"/>
<g id="Overlay+Shadow" filter="url(#filter0_dd_0_9)">
<rect x="5" y="1" width="44.02" height="44" rx="8" fill="var(--fill-0, white)" fill-opacity="0.01" shape-rendering="crispEdges"/>
</g>
<path id="Icon" d="M25.6 27.6L32.65 20.55L31.25 19.15L25.6 24.8L22.75 21.95L21.35 23.35L25.6 27.6V27.6M27 33C25.6167 33 24.3167 32.7375 23.1 32.2125C21.8833 31.6875 20.825 30.975 19.925 30.075C19.025 29.175 18.3125 28.1167 17.7875 26.9C17.2625 25.6833 17 24.3833 17 23C17 21.6167 17.2625 20.3167 17.7875 19.1C18.3125 17.8833 19.025 16.825 19.925 15.925C20.825 15.025 21.8833 14.3125 23.1 13.7875C24.3167 13.2625 25.6167 13 27 13C28.3833 13 29.6833 13.2625 30.9 13.7875C32.1167 14.3125 33.175 15.025 34.075 15.925C34.975 16.825 35.6875 17.8833 36.2125 19.1C36.7375 20.3167 37 21.6167 37 23C37 24.3833 36.7375 25.6833 36.2125 26.9C35.6875 28.1167 34.975 29.175 34.075 30.075C33.175 30.975 32.1167 31.6875 30.9 32.2125C29.6833 32.7375 28.3833 33 27 33V33M27 31C29.2333 31 31.125 30.225 32.675 28.675C34.225 27.125 35 25.2333 35 23C35 20.7667 34.225 18.875 32.675 17.325C31.125 15.775 29.2333 15 27 15C24.7667 15 22.875 15.775 21.325 17.325C19.775 18.875 19 20.7667 19 23C19 25.2333 19.775 27.125 21.325 28.675C22.875 30.225 24.7667 31 27 31V31M27 23V23V23V23V23V23V23V23V23V23" fill="var(--fill-0, #006947)"/>
</g>
<defs>
<filter id="filter0_dd_0_9" x="0" y="0" width="54.02" height="54" filterUnits="userSpaceOnUse" color-interpolation-filters="sRGB">
<feFlood flood-opacity="0" result="BackgroundImageFix"/>
<feColorMatrix in="SourceAlpha" type="matrix" values="0 0 0 0 0 0 0 0 0 0 0 0 0 0 0 0 0 0 127 0" result="hardAlpha"/>
<feMorphology radius="2" operator="erode" in="SourceAlpha" result="effect1_dropShadow_0_9"/>
<feOffset dy="2"/>
<feGaussianBlur stdDeviation="2"/>
<feComposite in2="hardAlpha" operator="out"/>
<feColorMatrix type="matrix" values="0 0 0 0 0 0 0 0 0 0 0 0 0 0 0 0 0 0 0.1 0"/>
<feBlend mode="normal" in2="BackgroundImageFix" result="effect1_dropShadow_0_9"/>
<feColorMatrix in="SourceAlpha" type="matrix" values="0 0 0 0 0 0 0 0 0 0 0 0 0 0 0 0 0 0 127 0" result="hardAlpha"/>
<feMorphology radius="1" operator="erode" in="SourceAlpha" result="effect2_dropShadow_0_9"/>
<feOffset dy="4"/>
<feGaussianBlur stdDeviation="3"/>
<feComposite in2="hardAlpha" operator="out"/>
<feColorMatrix type="matrix" values="0 0 0 0 0 0 0 0 0 0 0 0 0 0 0 0 0 0 0.1 0"/>
<feBlend mode="normal" in2="effect1_dropShadow_0_9" result="effect2_dropShadow_0_9"/>
<feBlend mode="normal" in="SourceGraphic" in2="effect2_dropShadow_0_9" result="shape"/>
</filter>
</defs>
</svg>
