<svg preserveAspectRatio="none" width="100%" height="100%" overflow="visible" style="display: block;" viewBox="0 0 59.8718 63.3334" fill="none" xmlns="http://www.w3.org/2000/svg">
<g id="Container">
<path id="Icon" d="M2.72438 37.5193L0 35.5898L14.1667 12.8333L23.7821 24.1154L36.4744 3.41025L46.0898 17.8974L57.2757 0L59.8718 1.9936L46.1282 23.9936L36.5962 9.58978L24.25 29.7244L14.6154 18.4231L2.72438 37.5193V37.5193M40.3855 53.3334C43.0602 53.3334 45.3205 52.41 47.1667 50.5632C49.0128 48.7165 49.9359 46.4558 49.9359 43.7812C49.9359 41.1066 49.0125 38.8462 47.1658 37C45.319 35.1539 43.0584 34.2308 40.3837 34.2308C37.7091 34.2308 35.4487 35.1542 33.6026 37.0009C31.7564 38.8477 30.8334 41.1084 30.8334 43.783C30.8334 46.4576 31.7567 48.718 33.6035 50.5641C35.4503 52.4103 37.7109 53.3334 40.3855 53.3334V53.3334M57.577 63.3334L48.1923 53.9488C47.1111 54.812 45.9114 55.4808 44.593 55.9552C43.2746 56.4295 41.8718 56.6667 40.3846 56.6667C36.8056 56.6667 33.7634 55.4151 31.258 52.912C28.7527 50.4088 27.5 47.3693 27.5 43.7934C27.5 40.2175 28.7516 37.1742 31.2547 34.6635C33.7579 32.1528 36.7974 30.8975 40.3733 30.8975C43.9493 30.8975 46.9926 32.1501 49.5032 34.6555C52.0139 37.1608 53.2693 40.203 53.2693 43.7821C53.2693 45.2693 53.0321 46.6827 52.5577 48.0225C52.0834 49.3622 51.4146 50.5727 50.5513 51.6539L59.8718 61.0385L57.577 63.3334V63.3334" fill="var(--fill-0, #0053CD)"/>
</g>
</svg>
